<?xml version="1.0" standalone="no"?>
<!DOCTYPE svg PUBLIC "-//W3C//DTD SVG 1.1//EN" "http://www.w3.org/Graphics/SVG/1.1/DTD/svg11.dtd">
<svg version="1.1" xmlns="http://www.w3.org/2000/svg" viewBox="0 0 224.5294916778539 184.93229112851623" width="449.0589833557078" height="369.86458225703245"><!-- svg-source:excalidraw --><metadata></metadata><defs><style class="style-fonts">
      </style></defs><g stroke-linecap="round" transform="translate(78.12649937065726 9.99999999999909) rotate(0 50.31072842279764 50.31072842279764)"><path d="M70.71 3.65 C78.54 6.11, 87.01 13.36, 91.99 20.35 C96.97 27.34, 100.06 37.03, 100.59 45.59 C101.13 54.14, 98.69 63.93, 95.2 71.66 C91.71 79.39, 86.42 87.1, 79.67 91.96 C72.92 96.81, 63.2 99.97, 54.7 100.79 C46.2 101.61, 36.14 100.35, 28.66 96.87 C21.18 93.39, 14.5 86.99, 9.81 79.91 C5.12 72.83, 1.52 62.66, 0.5 54.39 C-0.53 46.11, 0.38 37.78, 3.67 30.28 C6.97 22.77, 13.3 14.51, 20.26 9.36 C27.23 4.2, 36.47 -0.03, 45.47 -0.65 C54.48 -1.28, 69.27 4.24, 74.29 5.59 C79.31 6.94, 75.96 6.52, 75.61 7.43 M64.27 2.1 C72.17 3.37, 80.74 9.01, 86.72 14.84 C92.69 20.68, 98.27 28.69, 100.14 37.1 C102.01 45.52, 100.43 57.26, 97.94 65.31 C95.46 73.36, 90.93 79.83, 85.2 85.38 C79.48 90.93, 71.73 96.29, 63.61 98.59 C55.49 100.89, 44.9 101.58, 36.5 99.19 C28.11 96.81, 19.1 90.35, 13.23 84.28 C7.36 78.2, 3.2 70.73, 1.27 62.75 C-0.66 54.76, -0.98 44.63, 1.65 36.34 C4.28 28.05, 10.68 18.73, 17.04 13 C23.39 7.28, 31.81 3.61, 39.8 1.98 C47.78 0.36, 61.03 3.09, 64.95 3.27 C68.87 3.46, 63.67 2.24, 63.31 3.09" stroke="#279185" stroke-width="4" fill="none"></path></g><g stroke-linecap="round"><g transform="translate(79.02091232039766 67.46603202070673) rotate(0 -3.354048561520358 53.66477698431754)"><path d="M0 0 C-24.05 1.19, -45.28 -1.18, -68.2 0 M0 0 C-25.32 -0.75, -50.34 0.28, -68.2 0 M-68.2 0 C-70.25 41.14, -67.75 79.95, -68.2 107.33 M-68.2 0 C-68.18 34.21, -69 70.06, -68.2 107.33 M-68.2 107.33 C-40.1 106.48, -11.42 108.77, 61.49 106.21 M-68.2 107.33 C-22.03 106.2, 24.44 105.26, 61.49 106.21 M61.49 106.21 C63.15 82.99, 60.27 61.21, 61.49 41.37 M61.49 106.21 C60.89 88.93, 61.23 73.03, 61.49 41.37" stroke="#279185" stroke-width="4" fill="none"></path></g></g><mask></mask><g stroke-linecap="round"><g transform="translate(158.40006160969915 105.47858238459776) rotate(0 20.12429136911942 19.006275181945966)"><path d="M0.37 -0.55 C6.73 6.11, 32.69 32.42, 39.19 38.88 M-0.9 1.77 C5.73 8.21, 34.24 30.9, 41.35 37.22" stroke="#279185" stroke-width="4" fill="none"></path></g></g><mask></mask><g stroke-linecap="round"><g transform="translate(174.05228823012476 88.70833957699779) rotate(0 19.565283275532693 20.124291369118964)"><path d="M-1.06 0.87 C5.26 7.71, 31.52 34.11, 38.24 40.49 M0.59 0.28 C7.24 6.79, 34.15 31.89, 40.48 38.5" stroke="#279185" stroke-width="4" fill="none"></path></g></g><mask></mask><g stroke-linecap="round"><g transform="translate(104.73528462538161 67.46603202070673) rotate(0 24.037348024225594 -6.708097123039806)"><path d="M0 0 C3.31 2.52, 5.38 5.24, 14.53 11.18 M0 0 C4.79 3.18, 9.52 7.26, 14.53 11.18 M14.53 11.18 C24.98 0.02, 36.36 -12.91, 48.07 -24.6 M14.53 11.18 C24.67 0.53, 34.55 -9.83, 48.07 -24.6" stroke="#279185" stroke-width="4" fill="none"></path></g></g><mask></mask><g stroke-linecap="round"><g transform="translate(29.828200084771197 94.29842051286778) rotate(0 29.627428960091947 0)"><path d="M0 0 C11.57 0.92, 26.99 1.32, 59.25 0 M0 0 C15.97 0.93, 30.77 0.73, 59.25 0" stroke="#279185" stroke-width="4" fill="none"></path></g></g><mask></mask><g stroke-linecap="round"><g transform="translate(29.828200084771197 122.24882519219773) rotate(0 45.27965558051801 0)"><path d="M0 0 C28.36 0.93, 55.29 0.36, 90.56 0 M0 0 C20.37 -0.15, 39.22 -1.27, 90.56 0" stroke="#279185" stroke-width="4" fill="none"></path></g></g><mask></mask><g stroke-linecap="round"><g transform="translate(29.828200084771197 151.31724605870113) rotate(0 45.27965558051801 0)"><path d="M0 0 C30.73 0.18, 61.62 0.93, 90.56 0 M0 0 C30.55 -1.1, 63.43 -1.07, 90.56 0" stroke="#279185" stroke-width="4" fill="none"></path></g></g><mask></mask><g stroke-linecap="round"><g transform="translate(200.88467672228398 145.503561885399) rotate(0 6.14908902945308 -7.267105216626078)"><path d="M0.22 -0.44 C2.28 -2.78, 10.68 -11.96, 12.72 -14.28 M-0.33 0.53 C1.66 -1.95, 10.41 -12.75, 12.51 -15.12" stroke="#279185" stroke-width="4" fill="none"></path></g></g><mask></mask></svg>